<?xml version="1.0" encoding="UTF-8"?>
<svg id="_レイヤー_1" data-name="レイヤー_1" xmlns="http://www.w3.org/2000/svg" viewBox="0 0 1031.15 1024">
  <defs>
    <style>
      .cls-1 {
        stroke-linecap: round;
      }

      .cls-1, .cls-2, .cls-3, .cls-4, .cls-5 {
        stroke-miterlimit: 10;
      }

      .cls-1, .cls-2, .cls-4 {
        stroke-width: 30px;
      }

      .cls-1, .cls-4 {
        fill: none;
        stroke: #10b981;
      }

      .cls-2, .cls-3, .cls-5 {
        stroke: #fff;
      }

      .cls-2, .cls-6 {
        fill: #fff;
      }

      .cls-3 {
        font-size: 220px;
        letter-spacing: .12em;
      }

      .cls-3, .cls-5 {
        font-family: Impact, Impact;
        stroke-width: 5px;
      }

      .cls-3, .cls-5, .cls-7 {
        fill: #10b981;
      }

      .cls-5 {
        font-size: 260px;
        letter-spacing: .15em;
      }

      .cls-8 {
        fill: #10b981;
      }
    </style>
  </defs>
  <rect class="cls-6" x="7.15" width="1024" height="1024"/>
  <g>
    <path class="cls-6" d="M967.24,449.69c-9.35-21.25-87.56-190.94-283.47-242.15-201.72-52.73-356.49,65.05-373.55,78.51"/>
    <g>
      <path class="cls-8" d="M867.15,401.51c-6.55-10.54-13.55-20.86-20.98-30.9-1.87-2.5-3.82-4.92-5.73-7.4l-2.88-3.71c-.97-1.23-1.99-2.4-2.99-3.6l-6.02-7.21c-2.05-2.36-4.17-4.65-6.26-6.99-4.11-4.76-8.58-9.11-12.94-13.65l-1.64-1.7-1.7-1.62-3.41-3.24c-2.29-2.15-4.54-4.36-6.86-6.48l-7.11-6.2-3.56-3.12c-1.17-1.07-2.45-1.98-3.66-2.98-4.95-3.88-9.79-8.02-14.99-11.6-20.4-14.99-42.53-28-66.08-38.67l-4.41-2.03-2.21-1.02c-.74-.34-1.5-.61-2.25-.92l-9.05-3.6-4.54-1.81c-1.52-.59-3.02-1.25-4.57-1.74l-9.26-3.17c-12.37-4.27-25.05-7.63-37.88-10.65-1.6-.43-3.22-.69-4.83-1.02l-4.85-.95-4.86-.96c-1.62-.31-3.25-.68-4.88-.89l-9.82-1.49-4.93-.75-4.95-.53-9.94-1.08c-3.32-.31-6.65-.46-9.99-.7-6.68-.57-13.37-.59-20.11-.8-.84-.02-1.68-.05-2.53-.06l-2.52.04-5.05.07-5.06.07-2.54.04-2.53.13-10.15.52c-1.7.06-3.39.21-5.08.37l-5.08.45c-6.8.49-13.54,1.46-20.34,2.27-3.38.48-6.76,1.05-10.15,1.58-1.69.27-3.39.52-5.08.82l-5.06.97-5.07.97c-1.69.32-3.39.64-5.06,1.04l-10.1,2.26c-6.69,1.68-13.44,3.31-20.09,5.28-13.35,3.81-26.6,8.22-39.67,13.25-13.07,5.03-25.96,10.67-38.6,16.92-12.63,6.26-25.09,13.04-37.02,20.77,10.38-9.75,21.54-18.72,33.04-27.28,11.52-8.55,23.48-16.58,35.83-24.09,12.35-7.51,25.08-14.47,38.14-20.91,6.51-3.28,13.17-6.24,19.85-9.25l10.12-4.27c1.68-.73,3.39-1.39,5.11-2.05l5.14-1.98,5.15-1.98c1.72-.64,3.47-1.22,5.2-1.84,3.48-1.2,6.95-2.45,10.46-3.62,7.05-2.17,14.09-4.51,21.27-6.36l5.37-1.47c1.79-.5,3.59-.98,5.4-1.39l10.88-2.56,2.73-.64,2.74-.54,5.5-1.08,5.51-1.07,2.76-.54c.92-.16,1.85-.29,2.77-.44,7.4-1.13,14.83-2.42,22.33-3.15,3.74-.41,7.49-.9,11.26-1.23l11.31-.82,5.67-.4,5.68-.18,11.4-.33c1.91-.09,3.8-.02,5.7,0l5.71.08,5.72.09c1.91.05,3.83.02,5.72.16,15.24.76,30.56,2,45.75,4.31l11.42,1.73c1.92.25,3.79.68,5.68,1.05l5.67,1.14,11.37,2.3c.95.2,1.9.36,2.84.6l2.81.71,5.63,1.44c30.11,7.52,59.74,18.29,88.13,32.11,7.2,3.29,14.05,7.19,21.06,10.9,1.73.96,3.52,1.84,5.21,2.87l5.11,3.02,10.23,6.09c3.37,2.1,6.66,4.3,9.99,6.46l4.99,3.26,2.49,1.64,2.43,1.72c6.45,4.62,13.05,9.12,19.27,14.07,3.14,2.44,6.33,4.84,9.44,7.33l9.19,7.63c1.53,1.28,3.08,2.54,4.58,3.85l4.46,3.97c2.97,2.66,5.98,5.29,8.91,8,11.67,10.89,22.9,22.29,33.68,34.17l-96.92,74.21Z"/>
      <path class="cls-8" d="M908.58,355.51c-40.3-9.37-96.79,9.39-131.47,29.64,66.95,5.55,134.41,24.95,190.13,64.55-11.92-66.88,4.04-135.53,25.9-199.11-34.66,25.65-73.4,62.15-84.57,104.93Z"/>
    </g>
  </g>
  <g>
    <path class="cls-6" d="M73.42,592.17c9.35,21.25,87.56,190.94,283.47,242.15,201.72,52.73,356.49-65.05,373.55-78.51"/>
    <g>
      <path class="cls-7" d="M173.52,640.35c6.55,10.54,13.55,20.86,20.98,30.9,1.87,2.5,3.82,4.92,5.73,7.4l2.88,3.71c.97,1.23,1.99,2.4,2.99,3.6l6.02,7.21c2.05,2.36,4.17,4.65,6.26,6.99,4.11,4.76,8.58,9.11,12.94,13.65l1.64,1.7,1.7,1.62,3.41,3.24c2.29,2.15,4.54,4.36,6.86,6.48l7.11,6.2,3.56,3.12c1.17,1.07,2.45,1.98,3.66,2.98,4.95,3.88,9.79,8.02,14.99,11.6,20.4,14.99,42.53,28,66.08,38.67l4.41,2.03,2.21,1.02c.74.34,1.5.61,2.25.92l9.05,3.6,4.54,1.81c1.52.59,3.02,1.25,4.57,1.74l9.26,3.17c12.37,4.27,25.05,7.63,37.88,10.65,1.6.43,3.22.69,4.83,1.02l4.85.95,4.86.96c1.62.31,3.25.68,4.88.89l9.82,1.49,4.93.75,4.95.53,9.94,1.08c3.32.31,6.65.46,9.99.7,6.68.57,13.37.59,20.11.8.84.02,1.68.05,2.53.06l2.52-.04,5.05-.07,5.06-.07,2.54-.04,2.53-.13,10.15-.52c1.7-.06,3.39-.21,5.08-.37l5.08-.45c6.8-.49,13.54-1.46,20.34-2.27,3.38-.48,6.76-1.05,10.15-1.58,1.69-.27,3.39-.52,5.08-.82l5.06-.97,5.07-.97c1.69-.32,3.39-.64,5.06-1.04l10.1-2.26c6.69-1.68,13.44-3.31,20.09-5.28,13.35-3.81,26.6-8.22,39.67-13.25,13.07-5.03,25.96-10.67,38.6-16.92,12.63-6.26,25.09-13.04,37.02-20.77-10.38,9.75-21.54,18.72-33.04,27.28-11.52,8.55-23.48,16.58-35.83,24.09-12.35,7.51-25.08,14.47-38.14,20.91-6.51,3.28-13.17,6.24-19.85,9.25l-10.12,4.27c-1.68.73-3.39,1.39-5.11,2.05l-5.14,1.98-5.15,1.98c-1.72.64-3.47,1.22-5.2,1.84-3.48,1.2-6.95,2.45-10.46,3.62-7.05,2.17-14.09,4.51-21.27,6.36l-5.37,1.47c-1.79.5-3.59.98-5.4,1.39l-10.88,2.56-2.73.64-2.74.54-5.5,1.08-5.51,1.07-2.76.54c-.92.16-1.85.29-2.77.44-7.4,1.13-14.83,2.42-22.33,3.15-3.74.41-7.49.9-11.26,1.23l-11.31.82-5.67.4-5.68.18-11.4.33c-1.91.09-3.8.02-5.7,0l-5.71-.08-5.72-.09c-1.91-.05-3.83-.02-5.72-.16-15.24-.76-30.56-2-45.75-4.31l-11.42-1.73c-1.92-.25-3.79-.68-5.68-1.05l-5.67-1.14-11.37-2.3c-.95-.2-1.9-.36-2.84-.6l-2.81-.71-5.63-1.44c-30.11-7.52-59.74-18.29-88.13-32.11-7.2-3.29-14.05-7.19-21.06-10.9-1.73-.96-3.52-1.84-5.21-2.87l-5.11-3.02-10.23-6.09c-3.37-2.1-6.66-4.3-9.99-6.46l-4.99-3.26-2.49-1.64-2.43-1.72c-6.45-4.62-13.05-9.12-19.27-14.07-3.14-2.44-6.33-4.84-9.44-7.33l-9.19-7.63c-1.53-1.28-3.08-2.54-4.58-3.85l-4.46-3.97c-2.97-2.66-5.98-5.29-8.91-8-11.67-10.89-22.9-22.29-33.68-34.17l96.92-74.21Z"/>
      <path class="cls-7" d="M132.09,686.36c40.3,9.37,96.79-9.39,131.47-29.64-66.95-5.55-134.41-24.95-190.13-64.55,11.92,66.88-4.04,135.53-25.9,199.11,34.66-25.65,73.4-62.15,84.57-104.93Z"/>
    </g>
  </g>
  <g>
    <path class="cls-2" d="M693.86,335l-187.74-68.33c-3.61-1.31-7.68.75-9.09,4.61l-135.08,371.14c-1.4,3.86.38,8.06,4,9.37l280.63,102.14c3.61,1.31,7.68-.75,9.09-4.61l97.69-268.4c1.4-3.86-55.88-144.61-59.49-145.93Z"/>
    <g>
      <path class="cls-4" d="M688.49,341.86l-177.69-64.67c-3.42-1.24-7.28.75-8.63,4.46l-129.66,356.23c-1.35,3.71.33,7.72,3.75,8.96l265.6,96.67c3.42,1.24,7.28-.75,8.63-4.46l93.76-257.61c1.35-3.71-52.35-138.33-55.77-139.58Z"/>
      <line class="cls-1" x1="508.83" y1="438.65" x2="674.13" y2="498.81"/>
      <g>
        <polygon class="cls-8" points="663.96 439.64 688.65 371.8 724 461.49 663.96 439.64"/>
        <path class="cls-8" d="M707.76,363.15h0,0M689.2,414.13l8.62,21.88-14.65-5.33,6.02-16.55M688.85,345.93c-3.74,0-7.62,2.38-9.28,6.95l-31.35,86.12c-1.93,5.3.37,11,5.13,12.73l76.23,27.74c.98.36,1.96.52,2.92.52,6.5,0,11.91-7.62,9.16-14.61l-44.88-113.87c-1.49-3.77-4.66-5.6-7.93-5.6h0Z"/>
      </g>
      <line class="cls-1" x1="480.78" y1="515.71" x2="646.08" y2="575.88"/>
      <line class="cls-1" x1="452.73" y1="592.77" x2="568.51" y2="634.91"/>
    </g>
  </g>
  <g>
    <path class="cls-2" d="M477.61,303.14l-199.03,17.41c-3.83.34-6.64,3.92-6.29,8.02l34.42,393.46c.36,4.09,3.75,7.14,7.58,6.8l297.51-26.03c3.83-.34,6.64-3.92,6.29-8.02l-24.89-284.53c-.36-4.09-111.76-107.45-115.59-107.11Z"/>
    <path class="cls-4" d="M475.64,311.62l-188.37,16.48c-3.62.32-6.28,3.76-5.94,7.69l33.04,377.65c.34,3.93,3.56,6.85,7.19,6.54l281.57-24.63c3.62-.32,6.28-3.76,5.94-7.69l-23.89-273.1c-.34-3.93-105.91-103.25-109.53-102.93Z"/>
    <line class="cls-1" x1="353.72" y1="475.27" x2="528.96" y2="459.94"/>
    <g>
      <polygon class="cls-8" points="488.44 338.7 558.38 405.04 494.73 410.61 488.44 338.7"/>
      <path class="cls-8" d="M506.83,376.82l17.06,16.18-15.53,1.36-1.53-17.54M481.24,314.37c-4.98,0-9.59,4.58-9.03,11.02l7.99,91.3c.47,5.34,4.56,9.4,9.3,9.4.24,0,.48-.01.73-.03l80.81-7.07c8.11-.71,11.25-11.94,5-17.87l-88.8-84.23c-1.84-1.74-3.95-2.52-6-2.52h0Z"/>
    </g>
    <line class="cls-1" x1="360.86" y1="556.97" x2="536.11" y2="541.64"/>
    <line class="cls-1" x1="368.01" y1="638.67" x2="490.75" y2="627.93"/>
  </g>
  <text class="cls-5" transform="translate(84.28 431.08) rotate(-20)"><tspan x="0" y="0">AKH</tspan></text>
  <text class="cls-3" transform="translate(510.6 939.26) rotate(-20)"><tspan x="0" y="0">sync</tspan></text>
</svg>